ply
format ascii 1.0
element vertex 17
property float x
property float y
property float z
property uchar red
property uchar green
property uchar blue
end_header
0.9998750706947623 -1.3590494460742963 4.689183992973013 255 255 255
0.9780190779801814 -0.6643452536123625 3.0633037975693025 255 255 255
1.1283620365919629 -1.4628404523384984 4.550318394063689 255 255 255
0.8000223512274091 -1.8708343697164997 5.654913301537552 255 255 255
0.8000223512274091 -1.8708343697164997 5.654913301537552 255 255 255
0.6595951416552648 -0.493735709876212 4.202380856544271 255 255 255
1.241341234157296 -1.47946706764557 4.322175280706638 255 255 255
0.6595951416552648 -0.493735709876212 4.202380856544271 255 255 255
1.0266590659693802 -0.8600952385011635 3.4675933300936417 255 255 255
-0.7165291160184869 0.9441860533056888 -5.731103245812817 255 255 255
1.0806643552671065 -0.5212207322388528 3.6554618670818413 255 255 255
1.1133390503607221 -1.1302449699113997 3.7593889975322017 255 255 255
1.006045563093675 -0.4957068016654552 3.0750407763404857 255 255 255
-0.8531950555351103 0.17005752406438612 -1.463772447800336 255 255 255
0.9998127909985365 -1.1871249133947046 5.746758250020414 255 255 255
-0.537157132569193 0.04161318405420576 -0.6064687470359016 255 255 255
-0.6633036513886573 0.07141207246741813 -1.1868410246497592 255 255 255
